<?xml version="1.0" standalone="no"?><!DOCTYPE svg PUBLIC "-//W3C//DTD SVG 1.1//EN" "http://www.w3.org/Graphics/SVG/1.1/DTD/svg11.dtd"><svg t="1734592714952" class="icon" viewBox="0 0 1252 1024" version="1.1" xmlns="http://www.w3.org/2000/svg" p-id="3188" xmlns:xlink="http://www.w3.org/1999/xlink" width="244.53125" height="200"><path d="M170.658635 0h56.889224v56.889224h-56.889224zM227.552376 967.112282h56.889224v56.889224h-56.889224zM113.776941 967.112282h56.889224v56.889224H113.776941zM56.881694 910.220047h56.889224v56.889224H56.881694zM56.881694 625.779953h56.889224v56.889223H56.881694zM56.881694 512h56.889224v56.889224H56.881694zM113.776941 398.220047h56.889224v56.889224H113.776941zM56.881694 284.444612h56.889224v56.889223H56.881694zM56.881694 170.664659h56.889224v56.889223H56.881694z" fill="#3A2802" p-id="3189"></path><path d="M56.881694 853.335341h56.889224v56.889224H56.881694zM56.881694 568.887718h56.889224v56.889223H56.881694zM56.881694 455.112282h56.889224v56.889224H56.881694zM113.776941 341.335341h56.889224v56.889224H113.776941zM56.881694 227.555388h56.889224v56.889224H56.881694zM56.881694 113.779953h56.889224v56.889223H56.881694zM113.776941 56.887718h56.889224v56.889223H113.776941zM113.776941 796.444612h56.889224v56.889223H113.776941zM56.881694 739.555388h56.889224v56.889224H56.881694zM0 682.664659h56.889224v56.889223H0zM227.552376 0h56.889224v56.889224h-56.889224zM284.447624 967.112282h56.889223v56.889224h-56.889223zM170.658635 967.112282h56.889224v56.889224h-56.889224zM341.341365 0h56.889223v56.889224h-56.889223zM398.223059 967.112282h56.889223v56.889224h-56.889223zM455.118306 0h56.889223v56.889224h-56.889223zM512 967.112282h56.889224v56.889224H512zM568.881694 0h56.889224v56.889224h-56.889224zM625.776941 967.112282h56.889224v56.889224h-56.889224zM682.658635 0h56.889224v56.889224h-56.889224zM739.552376 967.112282h56.889224v56.889224h-56.889224zM796.447624 0h56.889223v56.889224h-56.889223zM853.341365 967.112282h56.889223v56.889224h-56.889223zM910.223059 0h56.889223v56.889224h-56.889223zM967.118306 967.112282h56.889223v56.889224h-56.889223zM284.447624 0h56.889223v56.889224h-56.889223z" fill="#3A2802" p-id="3190"></path><path d="M341.341365 967.112282h56.889223v56.889224h-56.889223zM398.223059 0h56.889223v56.889224h-56.889223zM455.118306 967.112282h56.889223v56.889224h-56.889223z" fill="#3A2802" p-id="3191"></path><path d="M113.776941 910.220047h56.889224v56.889224H113.776941z" fill="#CE7F03" p-id="3192"></path><path d="M113.776941 284.444612h56.889224v56.889223H113.776941zM113.776941 227.555388h56.889224v56.889224H113.776941zM113.776941 170.664659h56.889224v56.889223H113.776941z" fill="#FFCF00" p-id="3193"></path><path d="M113.776941 113.779953h56.889224v56.889223H113.776941z" fill="#FFCF00" p-id="3194"></path><path d="M113.776941 739.555388h56.889224v56.889224H113.776941z" fill="#B21515" p-id="3195"></path><path d="M113.776941 682.664659h56.889224v56.889223H113.776941z" fill="#FF0303" p-id="3196"></path><path d="M113.776941 625.779953h56.889224v56.889223H113.776941z" fill="#9D4B13" p-id="3197"></path><path d="M113.776941 568.887718h56.889224v56.889223H113.776941z" fill="#FFE84E" p-id="3198"></path><path d="M113.776941 512h56.889224v56.889224H113.776941z" fill="#FFE84E" p-id="3199"></path><path d="M113.776941 455.112282h56.889224v56.889224H113.776941z" fill="#FFE84E" p-id="3200"></path><path d="M113.776941 853.335341h56.889224v56.889224H113.776941z" fill="#FF9C00" p-id="3201"></path><path d="M170.658635 910.220047h56.889224v56.889224h-56.889224z" fill="#CE7F03" p-id="3202"></path><path d="M170.658635 284.444612h56.889224v56.889223h-56.889224zM170.658635 227.555388h56.889224v56.889224h-56.889224z" fill="#FFCF00" p-id="3203"></path><path d="M170.658635 170.664659h56.889224v56.889223h-56.889224z" fill="#FFDBBA" p-id="3204"></path><path d="M170.658635 113.779953h56.889224v56.889223h-56.889224z" fill="#FFCF00" p-id="3205"></path><path d="M170.658635 56.887718h56.889224v56.889223h-56.889224z" fill="#FFDBBA" p-id="3206"></path><path d="M170.658635 341.335341h56.889224v56.889224h-56.889224z" fill="#78C037" p-id="3207"></path><path d="M170.658635 398.220047h56.889224v56.889224h-56.889224z" fill="#37C037" p-id="3208"></path><path d="M170.658635 739.555388h56.889224v56.889224h-56.889224z" fill="#B21515" p-id="3209"></path><path d="M170.658635 682.664659h56.889224v56.889223h-56.889224z" fill="#FF0303" p-id="3210"></path><path d="M170.658635 625.779953h56.889224v56.889223h-56.889224z" fill="#9D4B13" p-id="3211"></path><path d="M170.658635 568.887718h56.889224v56.889223h-56.889224z" fill="#C0733E" p-id="3212"></path><path d="M170.658635 512h56.889224v56.889224h-56.889224z" fill="#9D4B13" p-id="3213"></path><path d="M170.658635 455.112282h56.889224v56.889224h-56.889224z" fill="#FFE84E" p-id="3214"></path><path d="M170.658635 853.335341h56.889224v56.889224h-56.889224zM170.658635 796.444612h56.889224v56.889223h-56.889224z" fill="#FF9C00" p-id="3215"></path><path d="M227.552376 910.220047h56.889224v56.889224h-56.889224z" fill="#CE7F03" p-id="3216"></path><path d="M227.552376 284.444612h56.889224v56.889223h-56.889224z" fill="#FFB600" p-id="3217"></path><path d="M227.552376 227.555388h56.889224v56.889224h-56.889224zM227.552376 170.664659h56.889224v56.889223h-56.889224z" fill="#FFCF00" p-id="3218"></path><path d="M227.552376 113.779953h56.889224v56.889223h-56.889224zM227.552376 56.887718h56.889224v56.889223h-56.889224z" fill="#FFCF00" p-id="3219"></path><path d="M227.552376 341.335341h56.889224v56.889224h-56.889224z" fill="#66F166" p-id="3220"></path><path d="M227.552376 398.220047h56.889224v56.889224h-56.889224z" fill="#37C037" p-id="3221"></path><path d="M227.552376 739.555388h56.889224v56.889224h-56.889224z" fill="#B21515" p-id="3222"></path><path d="M227.552376 682.664659h56.889224v56.889223h-56.889224z" fill="#9D4B13" p-id="3223"></path><path d="M227.552376 625.779953h56.889224v56.889223h-56.889224z" fill="#9D4B13" p-id="3224"></path><path d="M227.552376 568.887718h56.889224v56.889223h-56.889224z" fill="#77370C" p-id="3225"></path><path d="M227.552376 512h56.889224v56.889224h-56.889224z" fill="#FFE84E" p-id="3226"></path><path d="M227.552376 455.112282h56.889224v56.889224h-56.889224z" fill="#FFE84E" p-id="3227"></path><path d="M227.552376 853.335341h56.889224v56.889224h-56.889224zM227.552376 796.444612h56.889224v56.889223h-56.889224z" fill="#FF9C00" p-id="3228"></path><path d="M284.447624 910.220047h56.889223v56.889224h-56.889223z" fill="#CE7F03" p-id="3229"></path><path d="M284.447624 284.444612h56.889223v56.889223h-56.889223z" fill="#FFB600" p-id="3230"></path><path d="M284.447624 227.555388h56.889223v56.889224h-56.889223zM284.447624 170.664659h56.889223v56.889223h-56.889223z" fill="#FFCF00" p-id="3231"></path><path d="M284.447624 113.779953h56.889223v56.889223h-56.889223zM284.447624 56.887718h56.889223v56.889223h-56.889223z" fill="#FFCF00" p-id="3232"></path><path d="M284.447624 341.335341h56.889223v56.889224h-56.889223z" fill="#66F166" p-id="3233"></path><path d="M284.447624 398.220047h56.889223v56.889224h-56.889223z" fill="#78C037" p-id="3234"></path><path d="M284.447624 739.555388h56.889223v56.889224h-56.889223z" fill="#B21515" p-id="3235"></path><path d="M284.447624 682.664659h56.889223v56.889223h-56.889223z" fill="#FF0303" p-id="3236"></path><path d="M284.447624 625.779953h56.889223v56.889223h-56.889223z" fill="#77370C" p-id="3237"></path><path d="M284.447624 568.887718h56.889223v56.889223h-56.889223z" fill="#C0743F" p-id="3238"></path><path d="M284.447624 512h56.889223v56.889224h-56.889223z" fill="#77370C" p-id="3239"></path><path d="M284.447624 455.112282h56.889223v56.889224h-56.889223z" fill="#37C037" p-id="3240"></path><path d="M284.447624 853.335341h56.889223v56.889224h-56.889223zM284.447624 796.444612h56.889223v56.889223h-56.889223z" fill="#FF9C00" p-id="3241"></path><path d="M341.341365 910.220047h56.889223v56.889224h-56.889223z" fill="#CE7F03" p-id="3242"></path><path d="M341.341365 284.444612h56.889223v56.889223h-56.889223z" fill="#FFB600" p-id="3243"></path><path d="M341.341365 227.555388h56.889223v56.889224h-56.889223zM341.341365 170.664659h56.889223v56.889223h-56.889223z" fill="#FFCF00" p-id="3244"></path><path d="M341.341365 113.779953h56.889223v56.889223h-56.889223z" fill="#FFDBBA" p-id="3245"></path><path d="M341.341365 56.887718h56.889223v56.889223h-56.889223z" fill="#FFCF00" p-id="3246"></path><path d="M341.341365 341.335341h56.889223v56.889224h-56.889223z" fill="#37C037" p-id="3247"></path><path d="M341.341365 398.220047h56.889223v56.889224h-56.889223z" fill="#148114" p-id="3248"></path><path d="M341.341365 739.555388h56.889223v56.889224h-56.889223zM341.341365 682.664659h56.889223v56.889223h-56.889223z" fill="#FF0303" p-id="3249"></path><path d="M341.341365 625.779953h56.889223v56.889223h-56.889223z" fill="#9D4B13" p-id="3250"></path><path d="M341.341365 568.887718h56.889223v56.889223h-56.889223z" fill="#C0743F" p-id="3251"></path><path d="M341.341365 512h56.889223v56.889224h-56.889223z" fill="#9D4B13" p-id="3252"></path><path d="M341.341365 455.112282h56.889223v56.889224h-56.889223z" fill="#FFE84E" p-id="3253"></path><path d="M341.341365 853.335341h56.889223v56.889224h-56.889223zM341.341365 796.444612h56.889223v56.889223h-56.889223z" fill="#FF9C00" p-id="3254"></path><path d="M398.223059 910.220047h56.889223v56.889224h-56.889223z" fill="#CE7F03" p-id="3255"></path><path d="M398.223059 284.444612h56.889223v56.889223h-56.889223zM398.223059 227.555388h56.889223v56.889224h-56.889223z" fill="#FFB600" p-id="3256"></path><path d="M398.223059 170.664659h56.889223v56.889223h-56.889223z" fill="#FFCF00" p-id="3257"></path><path d="M398.223059 113.779953h56.889223v56.889223h-56.889223zM398.223059 56.887718h56.889223v56.889223h-56.889223z" fill="#FFCF00" p-id="3258"></path><path d="M398.223059 341.335341h56.889223v56.889224h-56.889223z" fill="#37C037" p-id="3259"></path><path d="M398.223059 398.220047h56.889223v56.889224h-56.889223z" fill="#78C037" p-id="3260"></path><path d="M398.223059 739.555388h56.889223v56.889224h-56.889223z" fill="#D5BE24" p-id="3261"></path><path d="M398.223059 682.664659h56.889223v56.889223h-56.889223z" fill="#FF0303" p-id="3262"></path><path d="M398.223059 625.779953h56.889223v56.889223h-56.889223z" fill="#77370C" p-id="3263"></path><path d="M398.223059 568.887718h56.889223v56.889223h-56.889223z" fill="#C0743F" p-id="3264"></path><path d="M398.223059 512h56.889223v56.889224h-56.889223z" fill="#C0743F" p-id="3265"></path><path d="M398.223059 455.112282h56.889223v56.889224h-56.889223z" fill="#FFE84E" p-id="3266"></path><path d="M398.223059 853.335341h56.889223v56.889224h-56.889223zM398.223059 796.444612h56.889223v56.889223h-56.889223z" fill="#FF9C00" p-id="3267"></path><path d="M455.118306 910.220047h56.889223v56.889224h-56.889223z" fill="#CE7F03" p-id="3268"></path><path d="M455.118306 284.444612h56.889223v56.889223h-56.889223zM455.118306 227.555388h56.889223v56.889224h-56.889223z" fill="#FFB600" p-id="3269"></path><path d="M455.118306 170.664659h56.889223v56.889223h-56.889223z" fill="#FFCF00" p-id="3270"></path><path d="M455.118306 113.779953h56.889223v56.889223h-56.889223zM455.118306 56.887718h56.889223v56.889223h-56.889223z" fill="#FFCF00" p-id="3271"></path><path d="M455.118306 341.335341h56.889223v56.889224h-56.889223z" fill="#78C037" p-id="3272"></path><path d="M455.118306 398.220047h56.889223v56.889224h-56.889223z" fill="#78C037" p-id="3273"></path><path d="M455.118306 739.555388h56.889223v56.889224h-56.889223zM455.118306 682.664659h56.889223v56.889223h-56.889223z" fill="#FF0303" p-id="3274"></path><path d="M455.118306 625.779953h56.889223v56.889223h-56.889223z" fill="#77370C" p-id="3275"></path><path d="M455.118306 568.887718h56.889223v56.889223h-56.889223z" fill="#C0743F" p-id="3276"></path><path d="M455.118306 512h56.889223v56.889224h-56.889223z" fill="#FFE84E" p-id="3277"></path><path d="M455.118306 455.112282h56.889223v56.889224h-56.889223z" fill="#37C037" p-id="3278"></path><path d="M455.118306 853.335341h56.889223v56.889224h-56.889223zM455.118306 796.444612h56.889223v56.889223h-56.889223z" fill="#FF9C00" p-id="3279"></path><path d="M512 910.220047h56.889224v56.889224H512z" fill="#CE7F03" p-id="3280"></path><path d="M512 284.444612h56.889224v56.889223H512z" fill="#E7A910" p-id="3281"></path><path d="M512 227.555388h56.889224v56.889224H512z" fill="#FFB600" p-id="3282"></path><path d="M512 170.664659h56.889224v56.889223H512z" fill="#FFCF00" p-id="3283"></path><path d="M512 113.779953h56.889224v56.889223H512zM512 56.887718h56.889224v56.889223H512z" fill="#FFCF00" p-id="3284"></path><path d="M512 341.335341h56.889224v56.889224H512z" fill="#66F166" p-id="3285"></path><path d="M512 398.220047h56.889224v56.889224H512z" fill="#78C037" p-id="3286"></path><path d="M512 739.555388h56.889224v56.889224H512z" fill="#B21515" p-id="3287"></path><path d="M512 682.664659h56.889224v56.889223H512z" fill="#FF0303" p-id="3288"></path><path d="M512 625.779953h56.889224v56.889223H512z" fill="#77370C" p-id="3289"></path><path d="M512 568.887718h56.889224v56.889223H512z" fill="#9D4B13" p-id="3290"></path><path d="M512 512h56.889224v56.889224H512z" fill="#37C037" p-id="3291"></path><path d="M512 455.112282h56.889224v56.889224H512z" fill="#37C037" p-id="3292"></path><path d="M512 853.335341h56.889224v56.889224H512zM512 796.444612h56.889224v56.889223H512z" fill="#FF9C00" p-id="3293"></path><path d="M568.881694 910.220047h56.889224v56.889224h-56.889224z" fill="#CE7F03" p-id="3294"></path><path d="M568.881694 284.444612h56.889224v56.889223h-56.889224z" fill="#E7A910" p-id="3295"></path><path d="M568.881694 227.555388h56.889224v56.889224h-56.889224z" fill="#FFB600" p-id="3296"></path><path d="M568.881694 170.664659h56.889224v56.889223h-56.889224z" fill="#FFCF00" p-id="3297"></path><path d="M568.881694 113.779953h56.889224v56.889223h-56.889224zM568.881694 56.887718h56.889224v56.889223h-56.889224z" fill="#FFCF00" p-id="3298"></path><path d="M568.881694 341.335341h56.889224v56.889224h-56.889224z" fill="#37C037" p-id="3299"></path><path d="M568.881694 398.220047h56.889224v56.889224h-56.889224z" fill="#148114" p-id="3300"></path><path d="M568.881694 739.555388h56.889224v56.889224h-56.889224z" fill="#B21515" p-id="3301"></path><path d="M568.881694 682.664659h56.889224v56.889223h-56.889224z" fill="#FF0303" p-id="3302"></path><path d="M568.881694 625.779953h56.889224v56.889223h-56.889224z" fill="#77370C" p-id="3303"></path><path d="M568.881694 568.887718h56.889224v56.889223h-56.889224z" fill="#C0743F" p-id="3304"></path><path d="M568.881694 512h56.889224v56.889224h-56.889224z" fill="#9D4B13" p-id="3305"></path><path d="M568.881694 455.112282h56.889224v56.889224h-56.889224z" fill="#37C037" p-id="3306"></path><path d="M568.881694 853.335341h56.889224v56.889224h-56.889224zM568.881694 796.444612h56.889224v56.889223h-56.889224z" fill="#FF9C00" p-id="3307"></path><path d="M625.776941 910.220047h56.889224v56.889224h-56.889224z" fill="#CE7F03" p-id="3308"></path><path d="M625.776941 284.444612h56.889224v56.889223h-56.889224zM625.776941 227.555388h56.889224v56.889224h-56.889224z" fill="#FFB600" p-id="3309"></path><path d="M625.776941 170.664659h56.889224v56.889223h-56.889224z" fill="#FFCF00" p-id="3310"></path><path d="M625.776941 113.779953h56.889224v56.889223h-56.889224z" fill="#FFCF00" p-id="3311"></path><path d="M625.776941 56.887718h56.889224v56.889223h-56.889224z" fill="#FFDBBA" p-id="3312"></path><path d="M625.776941 341.335341h56.889224v56.889224h-56.889224z" fill="#66F166" p-id="3313"></path><path d="M625.776941 398.220047h56.889224v56.889224h-56.889224z" fill="#37C037" p-id="3314"></path><path d="M625.776941 739.555388h56.889224v56.889224h-56.889224z" fill="#B21515" p-id="3315"></path><path d="M625.776941 682.664659h56.889224v56.889223h-56.889224z" fill="#FF0303" p-id="3316"></path><path d="M625.776941 625.779953h56.889224v56.889223h-56.889224z" fill="#77370C" p-id="3317"></path><path d="M625.776941 568.887718h56.889224v56.889223h-56.889224z" fill="#C0743F" p-id="3318"></path><path d="M625.776941 512h56.889224v56.889224h-56.889224z" fill="#C0743F" p-id="3319"></path><path d="M625.776941 455.112282h56.889224v56.889224h-56.889224z" fill="#FFDE00" p-id="3320"></path><path d="M625.776941 853.335341h56.889224v56.889224h-56.889224zM625.776941 796.444612h56.889224v56.889223h-56.889224z" fill="#FF9C00" p-id="3321"></path><path d="M682.658635 910.220047h56.889224v56.889224h-56.889224z" fill="#CE7F03" p-id="3322"></path><path d="M682.658635 284.444612h56.889224v56.889223h-56.889224z" fill="#E7A910" p-id="3323"></path><path d="M682.658635 227.555388h56.889224v56.889224h-56.889224z" fill="#FFB600" p-id="3324"></path><path d="M682.658635 170.664659h56.889224v56.889223h-56.889224z" fill="#FFCF00" p-id="3325"></path><path d="M682.658635 113.779953h56.889224v56.889223h-56.889224zM682.658635 56.887718h56.889224v56.889223h-56.889224z" fill="#FFCF00" p-id="3326"></path><path d="M682.658635 341.335341h56.889224v56.889224h-56.889224z" fill="#37C037" p-id="3327"></path><path d="M682.658635 398.220047h56.889224v56.889224h-56.889224z" fill="#78C037" p-id="3328"></path><path d="M682.658635 739.555388h56.889224v56.889224h-56.889224z" fill="#B21515" p-id="3329"></path><path d="M682.658635 682.664659h56.889224v56.889223h-56.889224z" fill="#FF0303" p-id="3330"></path><path d="M682.658635 625.779953h56.889224v56.889223h-56.889224z" fill="#77370C" p-id="3331"></path><path d="M682.658635 568.887718h56.889224v56.889223h-56.889224z" fill="#C0743F" p-id="3332"></path><path d="M682.658635 512h56.889224v56.889224h-56.889224z" fill="#9D4B13" p-id="3333"></path><path d="M682.658635 455.112282h56.889224v56.889224h-56.889224z" fill="#FFE84E" p-id="3334"></path><path d="M682.658635 853.335341h56.889224v56.889224h-56.889224zM682.658635 796.444612h56.889224v56.889223h-56.889224z" fill="#FF9C00" p-id="3335"></path><path d="M739.552376 910.220047h56.889224v56.889224h-56.889224z" fill="#CE7F03" p-id="3336"></path><path d="M739.552376 284.444612h56.889224v56.889223h-56.889224z" fill="#E7A910" p-id="3337"></path><path d="M739.552376 227.555388h56.889224v56.889224h-56.889224z" fill="#FFB600" p-id="3338"></path><path d="M739.552376 170.664659h56.889224v56.889223h-56.889224z" fill="#FFCF00" p-id="3339"></path><path d="M739.552376 113.779953h56.889224v56.889223h-56.889224zM739.552376 56.887718h56.889224v56.889223h-56.889224z" fill="#FFCF00" p-id="3340"></path><path d="M739.552376 341.335341h56.889224v56.889224h-56.889224z" fill="#37C037" p-id="3341"></path><path d="M739.552376 398.220047h56.889224v56.889224h-56.889224z" fill="#78C037" p-id="3342"></path><path d="M739.552376 739.555388h56.889224v56.889224h-56.889224z" fill="#B21515" p-id="3343"></path><path d="M739.552376 682.664659h56.889224v56.889223h-56.889224z" fill="#FF0303" p-id="3344"></path><path d="M739.552376 625.779953h56.889224v56.889223h-56.889224z" fill="#77370C" p-id="3345"></path><path d="M739.552376 568.887718h56.889224v56.889223h-56.889224z" fill="#C0743F" p-id="3346"></path><path d="M739.552376 512h56.889224v56.889224h-56.889224z" fill="#FFE84E" p-id="3347"></path><path d="M739.552376 455.112282h56.889224v56.889224h-56.889224z" fill="#FFE84E" p-id="3348"></path><path d="M739.552376 853.335341h56.889224v56.889224h-56.889224zM739.552376 796.444612h56.889224v56.889223h-56.889224z" fill="#FF9C00" p-id="3349"></path><path d="M796.447624 910.220047h56.889223v56.889224h-56.889223z" fill="#CE7F03" p-id="3350"></path><path d="M796.447624 284.444612h56.889223v56.889223h-56.889223z" fill="#E7A910" p-id="3351"></path><path d="M796.447624 227.555388h56.889223v56.889224h-56.889223z" fill="#FFB600" p-id="3352"></path><path d="M796.447624 170.664659h56.889223v56.889223h-56.889223z" fill="#FFCF00" p-id="3353"></path><path d="M796.447624 113.779953h56.889223v56.889223h-56.889223zM796.447624 56.887718h56.889223v56.889223h-56.889223z" fill="#FFCF00" p-id="3354"></path><path d="M796.447624 341.335341h56.889223v56.889224h-56.889223z" fill="#66F166" p-id="3355"></path><path d="M796.447624 398.220047h56.889223v56.889224h-56.889223z" fill="#78C037" p-id="3356"></path><path d="M796.447624 739.555388h56.889223v56.889224h-56.889223zM796.447624 682.664659h56.889223v56.889223h-56.889223z" fill="#B21515" p-id="3357"></path><path d="M796.447624 625.779953h56.889223v56.889223h-56.889223z" fill="#77370C" p-id="3358"></path><path d="M796.447624 568.887718h56.889223v56.889223h-56.889223z" fill="#9D4B13" p-id="3359"></path><path d="M796.447624 512h56.889223v56.889224h-56.889223z" fill="#FFE84E" p-id="3360"></path><path d="M796.447624 455.112282h56.889223v56.889224h-56.889223z" fill="#148114" p-id="3361"></path><path d="M796.447624 853.335341h56.889223v56.889224h-56.889223zM796.447624 796.444612h56.889223v56.889223h-56.889223z" fill="#FF9C00" p-id="3362"></path><path d="M853.341365 910.220047h56.889223v56.889224h-56.889223z" fill="#CE7F03" p-id="3363"></path><path d="M853.341365 284.444612h56.889223v56.889223h-56.889223z" fill="#E7A910" p-id="3364"></path><path d="M853.341365 227.555388h56.889223v56.889224h-56.889223z" fill="#FFB600" p-id="3365"></path><path d="M853.341365 170.664659h56.889223v56.889223h-56.889223z" fill="#FFCF00" p-id="3366"></path><path d="M853.341365 113.779953h56.889223v56.889223h-56.889223z" fill="#FFDBBA" p-id="3367"></path><path d="M853.341365 56.887718h56.889223v56.889223h-56.889223z" fill="#FFCF00" p-id="3368"></path><path d="M853.341365 341.335341h56.889223v56.889224h-56.889223z" fill="#37C037" p-id="3369"></path><path d="M853.341365 398.220047h56.889223v56.889224h-56.889223z" fill="#148114" p-id="3370"></path><path d="M853.341365 739.555388h56.889223v56.889224h-56.889223z" fill="#B21515" p-id="3371"></path><path d="M853.341365 682.664659h56.889223v56.889223h-56.889223z" fill="#FF0303" p-id="3372"></path><path d="M853.341365 625.779953h56.889223v56.889223h-56.889223z" fill="#77370C" p-id="3373"></path><path d="M853.341365 568.887718h56.889223v56.889223h-56.889223z" fill="#9D4B13" p-id="3374"></path><path d="M853.341365 512h56.889223v56.889224h-56.889223z" fill="#FFE84E" p-id="3375"></path><path d="M853.341365 455.112282h56.889223v56.889224h-56.889223z" fill="#148114" p-id="3376"></path><path d="M853.341365 853.335341h56.889223v56.889224h-56.889223z" fill="#CE7F03" p-id="3377"></path><path d="M853.341365 796.444612h56.889223v56.889223h-56.889223z" fill="#FF9C00" p-id="3378"></path><path d="M910.223059 910.220047h56.889223v56.889224h-56.889223z" fill="#CE7F03" p-id="3379"></path><path d="M910.223059 284.444612h56.889223v56.889223h-56.889223z" fill="#E7A910" p-id="3380"></path><path d="M910.223059 227.555388h56.889223v56.889224h-56.889223z" fill="#FFB600" p-id="3381"></path><path d="M910.223059 170.664659h56.889223v56.889223h-56.889223z" fill="#FFCF00" p-id="3382"></path><path d="M910.223059 113.779953h56.889223v56.889223h-56.889223zM910.223059 56.887718h56.889223v56.889223h-56.889223z" fill="#FFCF00" p-id="3383"></path><path d="M910.223059 341.335341h56.889223v56.889224h-56.889223z" fill="#37C037" p-id="3384"></path><path d="M910.223059 398.220047h56.889223v56.889224h-56.889223z" fill="#148114" p-id="3385"></path><path d="M910.223059 739.555388h56.889223v56.889224h-56.889223zM910.223059 682.664659h56.889223v56.889223h-56.889223z" fill="#B21515" p-id="3386"></path><path d="M910.223059 625.779953h56.889223v56.889223h-56.889223z" fill="#77370C" p-id="3387"></path><path d="M910.223059 568.887718h56.889223v56.889223h-56.889223z" fill="#D5BE24" p-id="3388"></path><path d="M910.223059 512h56.889223v56.889224h-56.889223z" fill="#FFE84E" p-id="3389"></path><path d="M910.223059 455.112282h56.889223v56.889224h-56.889223z" fill="#FFDE00" p-id="3390"></path><path d="M910.223059 853.335341h56.889223v56.889224h-56.889223z" fill="#CE7F03" p-id="3391"></path><path d="M910.223059 796.444612h56.889223v56.889223h-56.889223z" fill="#FF9C00" p-id="3392"></path><path d="M967.118306 910.220047h56.889223v56.889224h-56.889223z" fill="#CE7F03" p-id="3393"></path><path d="M967.118306 284.444612h56.889223v56.889223h-56.889223z" fill="#E7A910" p-id="3394"></path><path d="M967.118306 227.555388h56.889223v56.889224h-56.889223z" fill="#FFB600" p-id="3395"></path><path d="M967.118306 170.664659h56.889223v56.889223h-56.889223z" fill="#FFCF00" p-id="3396"></path><path d="M967.118306 113.779953h56.889223v56.889223h-56.889223zM967.118306 56.887718h56.889223v56.889223h-56.889223z" fill="#FFCF00" p-id="3397"></path><path d="M967.118306 341.335341h56.889223v56.889224h-56.889223z" fill="#78C037" p-id="3398"></path><path d="M967.118306 398.220047h56.889223v56.889224h-56.889223z" fill="#148114" p-id="3399"></path><path d="M967.118306 739.555388h56.889223v56.889224h-56.889223zM967.118306 682.664659h56.889223v56.889223h-56.889223z" fill="#B21515" p-id="3400"></path><path d="M967.118306 625.779953h56.889223v56.889223h-56.889223z" fill="#77370C" p-id="3401"></path><path d="M967.118306 568.887718h56.889223v56.889223h-56.889223z" fill="#9D4B13" p-id="3402"></path><path d="M967.118306 512h56.889223v56.889224h-56.889223z" fill="#D5BE24" p-id="3403"></path><path d="M967.118306 455.112282h56.889223v56.889224h-56.889223z" fill="#FFDE00" p-id="3404"></path><path d="M967.118306 853.335341h56.889223v56.889224h-56.889223zM967.118306 796.444612h56.889223v56.889223h-56.889223z" fill="#FF9C00" p-id="3405"></path><path d="M1024 910.220047h56.889224v56.889224H1024z" fill="#CE7F03" p-id="3406"></path><path d="M1024 284.444612h56.889224v56.889223H1024z" fill="#E7A910" p-id="3407"></path><path d="M1024 227.555388h56.889224v56.889224H1024z" fill="#FFB600" p-id="3408"></path><path d="M1024 170.664659h56.889224v56.889223H1024z" fill="#E7A910" p-id="3409"></path><path d="M1024 113.779953h56.889224v56.889223H1024z" fill="#FFCF00" p-id="3410"></path><path d="M1024 56.887718h56.889224v56.889223H1024z" fill="#FFB600" p-id="3411"></path><path d="M1024 341.335341h56.889224v56.889224H1024z" fill="#148114" p-id="3412"></path><path d="M1024 398.220047h56.889224v56.889224H1024z" fill="#148114" p-id="3413"></path><path d="M1080.881694 398.220047h56.889224v56.889224h-56.889224z" fill="#148114" p-id="3414"></path><path d="M1137.776941 682.664659h56.889224v56.889223h-56.889224z" fill="#B21515" p-id="3415"></path><path d="M56.881694 682.664659h56.889224v56.889223H56.881694z" fill="#FF0303" p-id="3416"></path><path d="M1024 739.555388h56.889224v56.889224H1024z" fill="#B21515" p-id="3417"></path><path d="M1024 682.664659h56.889224v56.889223H1024z" fill="#77370C" p-id="3418"></path><path d="M1024 625.779953h56.889224v56.889223H1024zM1024 568.887718h56.889224v56.889223H1024z" fill="#77370C" p-id="3419"></path><path d="M1024 512h56.889224v56.889224H1024z" fill="#77370C" p-id="3420"></path><path d="M1024 455.112282h56.889224v56.889224H1024z" fill="#D5BE24" p-id="3421"></path><path d="M1024 853.335341h56.889224v56.889224H1024zM1024 796.444612h56.889224v56.889223H1024zM1137.776941 796.444612h56.889224v56.889223h-56.889224z" fill="#CE7F03" p-id="3422"></path><path d="M1080.881694 910.220047h56.889224v56.889224h-56.889224z" fill="#CE7F03" p-id="3423"></path><path d="M1080.881694 284.444612h56.889224v56.889223h-56.889224zM1080.881694 227.555388h56.889224v56.889224h-56.889224z" fill="#E7A910" p-id="3424"></path><path d="M1080.881694 170.664659h56.889224v56.889223h-56.889224z" fill="#FFB600" p-id="3425"></path><path d="M1080.881694 113.779953h56.889224v56.889223h-56.889224z" fill="#FFB600" p-id="3426"></path><path d="M1080.881694 739.555388h56.889224v56.889224h-56.889224zM1080.881694 682.664659h56.889224v56.889223h-56.889224z" fill="#B21515" p-id="3427"></path><path d="M1080.881694 625.779953h56.889224v56.889223h-56.889224zM1080.881694 568.887718h56.889224v56.889223h-56.889224z" fill="#77370C" p-id="3428"></path><path d="M1080.881694 512h56.889224v56.889224h-56.889224z" fill="#D5BE24" p-id="3429"></path><path d="M1080.881694 853.335341h56.889224v56.889224h-56.889224z" fill="#CE7F03" p-id="3430"></path><path d="M512 0h56.889224v56.889224H512zM568.881694 967.112282h56.889224v56.889224h-56.889224zM625.776941 0h56.889224v56.889224h-56.889224zM682.658635 967.112282h56.889224v56.889224h-56.889224zM739.552376 0h56.889224v56.889224h-56.889224zM796.447624 967.112282h56.889223v56.889224h-56.889223zM853.341365 0h56.889223v56.889224h-56.889223zM910.223059 967.112282h56.889223v56.889224h-56.889223zM967.118306 0h56.889223v56.889224h-56.889223zM1024 967.112282h56.889224v56.889224H1024z" fill="#3A2802" p-id="3431"></path><path d="M1024 0h56.889224v56.889224H1024zM1080.881694 967.112282h56.889224v56.889224h-56.889224z" fill="#3A2802" p-id="3432"></path><path d="M1080.881694 56.887718h56.889224v56.889223h-56.889224zM1137.776941 113.779953h56.889224v56.889223h-56.889224z" fill="#3A2802" p-id="3433"></path><path d="M1137.776941 170.664659h56.889224v56.889223h-56.889224zM1137.776941 512h56.889224v56.889224h-56.889224zM1137.776941 853.335341h56.889224v56.889224h-56.889224zM1137.776941 227.555388h56.889224v56.889224h-56.889224z" fill="#3A2802" p-id="3434"></path><path d="M1137.776941 568.887718h56.889224v56.889223h-56.889224zM1137.776941 910.220047h56.889224v56.889224h-56.889224zM1137.776941 284.444612h56.889224v56.889223h-56.889224zM1137.776941 625.779953h56.889224v56.889223h-56.889224z" fill="#3A2802" p-id="3435"></path><path d="M1194.658635 682.664659h56.889224v56.889223h-56.889224zM1137.776941 739.555388h56.889224v56.889224h-56.889224zM1080.881694 796.444612h56.889224v56.889223h-56.889224zM1080.881694 341.335341h56.889224v56.889224h-56.889224zM1137.776941 398.220047h56.889224v56.889224h-56.889224zM1080.881694 455.112282h56.889224v56.889224h-56.889224z" fill="#3A2802" p-id="3436"></path></svg>